<svg width="215" height="201" viewBox="0 0 215 201" fill="none" xmlns="http://www.w3.org/2000/svg">
<g filter="url(#filter0_f_3223_37)">
<ellipse cx="107.5" cy="100.5" rx="57.5" ry="50.5" fill="#A90A3D"/>
</g>
<path d="M128.419 89.3843C127.771 87.9158 126.921 86.5452 125.894 85.3125L120.447 90.7593C121.722 91.514 123.224 91.79 124.684 91.5381C126.144 91.2861 127.467 90.5226 128.416 89.3843M118.234 88.55L123.681 83.1031C122.449 82.0757 121.08 81.2258 119.612 80.5781C118.473 81.5267 117.709 82.8501 117.457 84.3109C117.205 85.7717 117.482 87.2745 118.237 88.55M114.25 85.375C114.25 87.4 114.894 89.275 115.984 90.8062L113.469 93.3218L102.569 82.4187C104.527 80.9957 106.764 80.001 109.132 79.4992C111.501 78.9974 113.948 78.9998 116.316 79.5062C114.979 81.1703 114.25 83.2406 114.25 85.375ZM115.678 95.5312L118.194 93.0156C119.725 94.1093 121.6 94.75 123.625 94.75C125.759 94.7504 127.829 94.0228 129.494 92.6875C129.746 93.8583 129.873 95.0666 129.875 96.3125C129.875 100.094 128.653 103.594 126.581 106.434L115.678 95.5312ZM124.513 108.784L113.469 97.7406L111.578 99.6312C114.828 103.336 116.822 107.974 117.275 112.881C120.025 112.122 122.5 110.691 124.513 108.784ZM96.1156 91.725C96.875 88.975 98.3031 86.5 100.209 84.4875L111.259 95.5312L109.369 97.4218C105.664 94.1719 101.023 92.1777 96.1156 91.725ZM90.8125 94.75C89.5693 94.75 88.377 95.2438 87.4979 96.1229C86.6189 97.002 86.125 98.1942 86.125 99.4375V102.562C86.125 107.95 88.2651 113.116 92.0744 116.926C95.8837 120.735 101.05 122.875 106.438 122.875H109.562C110.806 122.875 111.998 122.381 112.877 121.502C113.756 120.623 114.25 119.431 114.25 118.187V115.062C114.25 109.675 112.11 104.509 108.301 100.699C104.491 96.89 99.3247 94.75 93.9375 94.75H90.8125ZM96.7375 105.362C96.8826 105.217 97.0551 105.101 97.2449 105.023C97.4347 104.944 97.6382 104.903 97.8438 104.903C98.0493 104.903 98.2528 104.944 98.4426 105.023C98.6324 105.101 98.8049 105.217 98.95 105.362L103.638 110.05C103.783 110.195 103.898 110.368 103.977 110.558C104.055 110.747 104.096 110.951 104.096 111.156C104.096 111.362 104.055 111.565 103.977 111.755C103.898 111.945 103.783 112.117 103.638 112.262C103.492 112.408 103.32 112.523 103.13 112.602C102.94 112.68 102.737 112.721 102.531 112.721C102.326 112.721 102.122 112.68 101.933 112.602C101.743 112.523 101.57 112.408 101.425 112.262L96.7375 107.575C96.592 107.43 96.4765 107.257 96.3978 107.068C96.319 106.878 96.2785 106.674 96.2785 106.469C96.2785 106.263 96.319 106.06 96.3978 105.87C96.4765 105.68 96.592 105.508 96.7375 105.362Z" fill="white"/>
<defs>
<filter id="filter0_f_3223_37" x="0" y="0" width="215" height="201" filterUnits="userSpaceOnUse" color-interpolation-filters="sRGB">
<feFlood flood-opacity="0" result="BackgroundImageFix"/>
<feBlend mode="normal" in="SourceGraphic" in2="BackgroundImageFix" result="shape"/>
<feGaussianBlur stdDeviation="25" result="effect1_foregroundBlur_3223_37"/>
</filter>
</defs>
</svg>
