<svg width="215" height="201" viewBox="0 0 215 201" fill="none" xmlns="http://www.w3.org/2000/svg">
<g filter="url(#filter0_f_3223_36)">
<ellipse cx="107.5" cy="100.5" rx="57.5" ry="50.5" fill="#A90A3D"/>
</g>
<g clip-path="url(#clip0_3223_36)">
<path fill-rule="evenodd" clip-rule="evenodd" d="M106.748 87.4583C104.758 87.7021 102.873 88.4083 102.077 89.0625C97.4354 92.9 94.8146 97.9729 93.4542 102.396C92.8684 104.27 92.4761 106.198 92.2833 108.152C92.2125 108.95 92.1479 109.785 92.2687 110.583C93.0667 111.487 94.1958 112.144 95.2437 112.706C97.4333 113.883 100.723 115.104 105.146 115.596C107.65 115.875 110.812 116.033 113.729 115.8C116.756 115.556 119.077 114.921 120.281 113.956C122.31 112.333 122.823 110.44 122.638 108.781C122.44 106.998 121.438 105.49 120.429 104.817C118.69 103.658 116.731 103.542 114.885 104.025C112.985 104.525 111.425 105.608 110.688 106.496C110.502 106.719 110.273 106.901 110.013 107.031C109.754 107.16 109.47 107.234 109.181 107.247C108.891 107.261 108.602 107.214 108.331 107.109C108.061 107.005 107.815 106.845 107.61 106.64C106.465 105.494 104.517 105.16 101.906 106.9C101.621 107.09 101.294 107.207 100.953 107.241C100.613 107.274 100.269 107.223 99.9523 107.092C99.6359 106.961 99.3567 106.754 99.1393 106.49C98.922 106.225 98.7732 105.911 98.7062 105.575C98.1104 102.587 98.4208 99.4125 98.9708 96.7937C99.525 94.1708 100.358 91.9146 100.971 90.6937C101.144 90.3481 101.41 90.0576 101.739 89.8545C102.068 89.6514 102.447 89.5439 102.833 89.5439C103.22 89.5439 103.599 89.6514 103.928 89.8545C104.257 90.0576 104.523 90.3481 104.696 90.6937C105.119 91.5354 105.892 92.2896 106.792 92.6062C107.49 92.1666 108.096 91.5521 108.588 90.8958C109.492 89.6916 109.794 88.5521 109.392 87.5458C108.575 87.2541 107.587 87.3562 106.748 87.4583ZM109.838 83.3666C110.846 83.5604 112.319 84.0646 113.029 85.4854C114.585 88.5979 113.3 91.5562 111.921 93.3958C111.021 94.5958 109.863 95.725 108.515 96.4166C108.233 96.5625 107.66 96.8333 107 96.8333C105.769 96.8333 104.562 96.2729 103.573 95.5729C103.385 96.2104 103.204 96.9104 103.048 97.6521C102.739 99.0751 102.571 100.525 102.548 101.981C104.742 101.273 106.985 101.348 108.919 102.44C110.372 101.299 112.043 100.467 113.829 99.9958C116.538 99.2854 119.788 99.3833 122.74 101.35C124.854 102.76 126.456 105.417 126.779 108.323C127.117 111.352 126.065 114.665 122.883 117.21C120.638 119.006 117.215 119.7 114.065 119.952C110.804 120.215 107.36 120.035 104.688 119.737C99.7333 119.187 95.9292 117.804 93.2708 116.377C91.5271 115.44 89.1417 114.144 88.3854 112.158C87.875 110.812 88.0083 109.179 88.1333 107.779C88.3 105.944 88.7083 103.652 89.4729 101.169C90.9979 96.2125 93.9833 90.3479 99.4229 85.8521C101.096 84.4687 103.896 83.6104 106.24 83.3229C107.448 83.175 108.719 83.1541 109.838 83.3666Z" fill="white"/>
</g>
<defs>
<filter id="filter0_f_3223_36" x="0" y="0" width="215" height="201" filterUnits="userSpaceOnUse" color-interpolation-filters="sRGB">
<feFlood flood-opacity="0" result="BackgroundImageFix"/>
<feBlend mode="normal" in="SourceGraphic" in2="BackgroundImageFix" result="shape"/>
<feGaussianBlur stdDeviation="25" result="effect1_foregroundBlur_3223_36"/>
</filter>
<clipPath id="clip0_3223_36">
<rect width="50" height="50" fill="white" transform="translate(82 76)"/>
</clipPath>
</defs>
</svg>
