<svg width="24" height="22" viewBox="0 0 24 22" fill="none" xmlns="http://www.w3.org/2000/svg">
<path d="M23.616 21.992C22.1498 21.9586 20.7184 21.9586 19.2522 21.992C18.938 21.992 18.8682 21.9251 18.8682 21.6239C18.8682 19.147 18.8682 16.6366 18.8682 14.1597C18.8682 13.5907 18.8333 13.0217 18.6587 12.4862C18.1351 10.7457 16.0405 10.1097 14.5393 11.2812C13.7364 11.8837 13.4222 12.7205 13.4222 13.7246C13.4222 16.0676 13.4222 18.4106 13.4222 20.7536C13.4222 21.0548 13.3873 21.3561 13.4222 21.6908C13.4571 21.9586 13.3175 22.0255 13.0731 21.992C11.572 21.992 10.1057 21.992 8.60459 21.992C8.32531 21.992 8.25549 21.9251 8.25549 21.6573C8.2904 19.5486 8.2904 17.4399 8.2904 15.2978C8.2904 12.687 8.2904 10.0762 8.25549 7.49893C8.25549 7.19768 8.32531 7.13074 8.60459 7.13074C10.1057 7.13074 11.572 7.13074 13.0731 7.13074C13.3524 7.13074 13.4222 7.19768 13.4222 7.46545C13.4222 8.001 13.4222 8.53654 13.4222 9.1725C13.5269 9.07208 13.5618 9.03861 13.5968 9.00514C14.9583 7.09727 16.8783 6.56173 19.1475 6.89644C21.7657 7.2981 23.4414 9.03861 23.8604 11.7163C23.9651 12.3523 24 12.9882 24 13.6242C24 16.3019 24 18.9461 24 21.6239C24 21.8916 23.9302 21.992 23.616 21.992Z" fill="#FFF"/>
<path d="M5.46267 14.5614C5.46267 16.9044 5.46267 19.2474 5.46267 21.5904C5.46267 21.8916 5.39285 21.992 5.07866 21.992C3.61243 21.9586 2.1462 21.992 0.679972 21.992C0.400691 21.992 0.33087 21.9251 0.33087 21.6573C0.33087 16.9379 0.33087 12.1849 0.33087 7.46545C0.33087 7.23115 0.400691 7.13074 0.679972 7.13074C2.18111 7.13074 3.68225 7.13074 5.18339 7.13074C5.49758 7.13074 5.53249 7.23115 5.53249 7.49892C5.46267 9.84192 5.46267 12.1849 5.46267 14.5614Z" fill="#FFF"/>
<path d="M5.70704 3.24805C5.35794 4.58691 3.92662 5.35675 2.28584 5.08898C0.540331 4.82121 -0.437156 3.18111 0.191228 1.57448C0.610151 0.57034 1.62255 -0.0321459 2.91423 0.00132554C4.8692 -0.0321459 6.16088 1.47407 5.70704 3.24805Z" fill="#FFF"/>
</svg>
